{
	"asset":{
		"generator":"Khronos glTF Blender I/O v3.6.27",
		"version":"2.0"
	},
	"scene":0,
	"scenes":[
		{
			"name":"Scene",
			"nodes":[
				0
			]
		}
	],
	"nodes":[
		{
			"mesh":0,
			"name":"generated"
		}
	],
	"materials":[
		{
			"doubleSided":true,
			"name":"Material.001",
			"pbrMetallicRoughness":{
				"baseColorFactor":[
					0.4019671082496643,
					0.4019671082496643,
					0.4019671082496643,
					1
				],
				"metallicFactor":0.8399999737739563,
				"roughnessFactor":0.550000011920929
			}
		}
	],
	"meshes":[
		{
			"name":"generated",
			"primitives":[
				{
					"attributes":{
						"POSITION":0,
						"NORMAL":1
					},
					"indices":2,
					"material":0
				}
			]
		}
	],
	"accessors":[
		{
			"bufferView":0,
			"componentType":5126,
			"count":14309,
			"max":[
				0.5117840766906738,
				1.1778229475021362,
				0.2874706983566284
			],
			"min":[
				-0.5434055328369141,
				-0.5899999737739563,
				-0.07809418439865112
			],
			"type":"VEC3"
		},
		{
			"bufferView":1,
			"componentType":5126,
			"count":14309,
			"type":"VEC3"
		},
		{
			"bufferView":2,
			"componentType":5123,
			"count":85842,
			"type":"SCALAR"
		}
	],
	"bufferViews":[
		{
			"buffer":0,
			"byteLength":171708,
			"byteOffset":0,
			"target":34962
		},
		{
			"buffer":0,
			"byteLength":171708,
			"byteOffset":171708,
			"target":34962
		},
		{
			"buffer":0,
			"byteLength":171684,
			"byteOffset":343416,
			"target":34963
		}
	],
	"buffers":[
		{
			"byteLength":515100,
			"uri":"data:application/octet-stream;base64,"
		}
	]
}
