{
	"asset":{
		"generator":"Khronos glTF Blender I/O v3.6.27",
		"version":"2.0"
	},
	"scene":0,
	"scenes":[
		{
			"name":"Scene",
			"nodes":[
				0
			]
		}
	],
	"nodes":[
		{
			"mesh":0,
			"name":"generated"
		}
	],
	"materials":[
		{
			"doubleSided":true,
			"name":"Material.001",
			"pbrMetallicRoughness":{
				"baseColorFactor":[
					0.401977002620697,
					0.401977002620697,
					0.401977002620697,
					1
				],
				"metallicFactor":0.8399999737739563,
				"roughnessFactor":0.550000011920929
			}
		}
	],
	"meshes":[
		{
			"name":"generated",
			"primitives":[
				{
					"attributes":{
						"POSITION":0,
						"NORMAL":1
					},
					"indices":2,
					"material":0
				}
			]
		}
	],
	"accessors":[
		{
			"bufferView":0,
			"componentType":5126,
			"count":10012,
			"max":[
				0.48897436261177063,
				1.1538801193237305,
				0.3314937651157379
			],
			"min":[
				-0.6012189388275146,
				-0.46000000834465027,
				0.0195627324283123
			],
			"type":"VEC3"
		},
		{
			"bufferView":1,
			"componentType":5126,
			"count":10012,
			"type":"VEC3"
		},
		{
			"bufferView":2,
			"componentType":5123,
			"count":60072,
			"type":"SCALAR"
		}
	],
	"bufferViews":[
		{
			"buffer":0,
			"byteLength":120144,
			"byteOffset":0,
			"target":34962
		},
		{
			"buffer":0,
			"byteLength":120144,
			"byteOffset":120144,
			"target":34962
		},
		{
			"buffer":0,
			"byteLength":120144,
			"byteOffset":240288,
			"target":34963
		}
	],
	"buffers":[
		{
			"byteLength":360432,
			"uri":"data:application/octet-stream;base64,"
		}
	]
}
